<?xml version="1.0" encoding="UTF-8"?>
<svg version="1.1" xmlns="http://www.w3.org/2000/svg" width="980" height="980">
<path d="M0 0 C0 36.96 0 73.92 0 112 C-17.49 112.33 -34.98 112.66 -53 113 C-74.77120721 114.14585301 -93.78774609 116.21103881 -109.6875 132.4375 C-132.79738031 159.97091733 -129.31532003 200.92554003 -129.125 234.5625 C-129.063125 250.1240625 -129.063125 250.1240625 -129 266 C-88.08 266 -47.16 266 -5 266 C-5.65942223 274.57248899 -6.42808428 282.99132596 -7.58227539 291.49145508 C-7.73847855 292.66378189 -7.8946817 293.8361087 -8.05561829 295.04396057 C-8.56621151 298.86961712 -9.08188636 302.69456949 -9.59765625 306.51953125 C-9.95567062 309.19128472 -10.31259198 311.8631839 -10.66954041 314.53507996 C-11.50950626 320.81783088 -12.35313933 327.10008349 -13.19814056 333.38215894 C-14.25585796 341.24716649 -15.3085906 349.11284024 -16.36132812 356.97851562 C-18.23614629 370.98631623 -20.11841324 384.99310329 -22 399 C-57.31 399 -92.62 399 -129 399 C-129 508.56 -129 618.12 -129 731 C-176.19 731 -223.38 731 -272 731 C-272 621.11 -272 511.22 -272 398 C-310.28 398 -348.56 398 -388 398 C-388 354.44 -388 310.88 -388 266 C-349.72 266 -311.44 266 -272 266 C-272.07878051 232.66048889 -272.07878051 232.66048889 -272.18017578 199.32104492 C-272.18920898 192.7779541 -272.18920898 192.7779541 -272.19088745 189.68598938 C-272.19389874 187.58966718 -272.20080257 185.49334777 -272.21115112 183.39704895 C-272.42548568 137.56718932 -266.90166472 89.66343255 -238 52 C-237.03513672 50.72576172 -237.03513672 50.72576172 -236.05078125 49.42578125 C-207.30190997 12.54363401 -168.99233079 -3.04088943 -123.4375 -8.6875 C-84.78504112 -13.1308822 -37.45414898 -12.48471633 0 0 Z " fill="#000000" transform="translate(684,130)"/>
</svg>
