<?xml version="1.0" encoding="UTF-8"?>
<svg version="1.1" xmlns="http://www.w3.org/2000/svg" width="512" height="512">
<path d="M0 0 C1.85841575 -0.00436033 3.71682971 -0.00954781 5.57524109 -0.01548767 C10.57144065 -0.02874876 15.56756398 -0.02947075 20.56377769 -0.02692437 C24.76028245 -0.02584557 28.95677234 -0.03076117 33.15327388 -0.03552979 C43.06866552 -0.04658101 52.98401926 -0.04708758 62.89941406 -0.04101562 C73.06895568 -0.03498297 83.23835869 -0.04727905 93.40787667 -0.06858569 C102.19236359 -0.08630188 110.97680679 -0.09218728 119.76131088 -0.08894795 C124.98428584 -0.08715042 130.20716197 -0.08961575 135.43012047 -0.10366249 C187.86299429 -0.23248508 187.86299429 -0.23248508 210.79418945 8.2746582 C212.33913086 8.84506836 212.33913086 8.84506836 213.9152832 9.42700195 C242.06508979 20.52991372 267.9447659 40.58278626 282.79418945 67.2746582 C283.21732422 68.01425781 283.64045898 68.75385742 284.07641602 69.51586914 C289.91428972 79.785968 294.60430563 89.88781882 297.79418945 101.2746582 C298.0880957 102.26336914 298.38200195 103.25208008 298.68481445 104.27075195 C302.77652346 119.05305363 303.09284204 134.25359494 303.06884766 149.48046875 C303.07320798 151.3388845 303.07839546 153.19729846 303.08433533 155.05570984 C303.09759642 160.0519094 303.09831841 165.04803273 303.09577203 170.04424644 C303.09469323 174.2407512 303.09960882 178.43724109 303.10437745 182.63374263 C303.11542866 192.54913427 303.11593524 202.46448801 303.10986328 212.37988281 C303.10383063 222.54942443 303.1161267 232.71882744 303.13743335 242.88834542 C303.15514954 251.67283234 303.16103493 260.45727554 303.15779561 269.24177963 C303.15599807 274.46475459 303.15846341 279.68763072 303.17251015 284.91058922 C303.30133273 337.34346304 303.30133273 337.34346304 294.79418945 360.2746582 C294.41391602 361.30461914 294.03364258 362.33458008 293.6418457 363.39575195 C282.53893394 391.54555854 262.4860614 417.42523465 235.79418945 432.2746582 C235.05458984 432.69779297 234.31499023 433.12092773 233.55297852 433.55688477 C223.28287965 439.39475847 213.18102884 444.08477438 201.79418945 447.2746582 C200.80547852 447.56856445 199.81676758 447.8624707 198.7980957 448.1652832 C184.01579403 452.25699221 168.81525272 452.57331079 153.58837891 452.54931641 C151.72996315 452.55367673 149.87154919 452.55886421 148.01313782 452.56480408 C143.01693825 452.57806517 138.02081492 452.57878716 133.02460122 452.57624078 C128.82809646 452.57516198 124.63160656 452.58007757 120.43510503 452.5848462 C110.51971339 452.59589741 100.60435964 452.59640399 90.68896484 452.59033203 C80.51942323 452.58429938 70.35002022 452.59659545 60.18050224 452.6179021 C51.39601532 452.63561829 42.61157212 452.64150368 33.82706803 452.63826436 C28.60409307 452.63646682 23.38121693 452.63893216 18.15825844 452.6529789 C-34.27461538 452.78180148 -34.27461538 452.78180148 -57.20581055 444.2746582 C-58.23577148 443.89438477 -59.26573242 443.51411133 -60.3269043 443.12231445 C-88.47671089 432.01940269 -114.356387 411.96653015 -129.20581055 385.2746582 C-129.62894531 384.53505859 -130.05208008 383.79545898 -130.48803711 383.03344727 C-136.32591081 372.7633484 -141.01592672 362.66149759 -144.20581055 351.2746582 C-144.4997168 350.28594727 -144.79362305 349.29723633 -145.09643555 348.27856445 C-149.18814456 333.49626278 -149.50446313 318.29572147 -149.48046875 303.06884766 C-149.48482908 301.2104319 -149.49001656 299.35201794 -149.49595642 297.49360657 C-149.50921751 292.497407 -149.5099395 287.50128367 -149.50739312 282.50506997 C-149.50631432 278.30856521 -149.51122992 274.11207531 -149.51599854 269.91557378 C-149.52704976 260.00018214 -149.52755633 250.08482839 -149.52148438 240.16943359 C-149.51545172 229.99989198 -149.5277478 219.83048897 -149.54905444 209.66097099 C-149.56677063 200.87648407 -149.57265603 192.09204087 -149.5694167 183.30753678 C-149.56761917 178.08456182 -149.5700845 172.86168568 -149.58413124 167.63872719 C-149.71295383 115.20585337 -149.71295383 115.20585337 -141.20581055 92.2746582 C-140.82553711 91.24469727 -140.44526367 90.21473633 -140.0534668 89.15356445 C-128.95055503 61.00375786 -108.89768249 35.12408175 -82.20581055 20.2746582 C-81.46621094 19.85152344 -80.72661133 19.42838867 -79.96459961 18.99243164 C-69.69450075 13.15455794 -59.59264993 8.46454203 -48.20581055 5.2746582 C-47.21709961 4.98075195 -46.22838867 4.6868457 -45.2097168 4.3840332 C-30.42741512 0.29232419 -15.22687381 -0.02399438 0 0 Z M-43.95581055 43.0871582 C-45.0214624 43.47508545 -45.0214624 43.47508545 -46.10864258 43.87084961 C-71.16137896 53.25638802 -91.96860636 73.05654574 -103.20581055 97.2746582 C-104.60111636 100.61489423 -105.86591024 103.98999598 -107.08081055 107.3996582 C-107.36714355 108.19823242 -107.65347656 108.99680664 -107.94848633 109.81958008 C-112.23802542 122.49990129 -112.50074026 134.97915805 -112.48046875 148.20751953 C-112.48482361 150.09625956 -112.49000933 151.98499783 -112.49595642 153.87373352 C-112.5092749 158.97306113 -112.50993306 164.0723143 -112.50739312 169.17165589 C-112.50631846 173.44312938 -112.51121943 177.71458811 -112.51599854 181.98605841 C-112.52706918 192.07128339 -112.52754503 202.15647112 -112.52148438 212.24169922 C-112.51544725 222.61292789 -112.52775464 232.98402081 -112.54905444 243.35522634 C-112.56672267 252.28982013 -112.57266356 261.22437091 -112.5694167 270.1589815 C-112.56761189 275.48185243 -112.57015933 280.80462651 -112.58413124 286.12748146 C-112.59679012 291.13695318 -112.59468993 296.14621469 -112.58172035 301.15568352 C-112.57937241 302.98287149 -112.58202444 304.81007464 -112.59034348 306.63724518 C-112.64960856 320.67821482 -111.31822969 333.7370463 -106.39331055 347.0246582 C-106.13469238 347.73509277 -105.87607422 348.44552734 -105.60961914 349.17749023 C-96.22408073 374.23022662 -76.42392301 395.03745402 -52.20581055 406.2746582 C-48.86557452 407.66996402 -45.49047277 408.9347579 -42.08081055 410.1496582 C-41.28223633 410.43599121 -40.48366211 410.72232422 -39.66088867 411.01733398 C-26.98056746 415.30687307 -14.5013107 415.56958792 -1.27294922 415.54931641 C0.61579081 415.55367127 2.50452908 415.55885698 4.39326477 415.56480408 C9.49259238 415.57812255 14.59184555 415.57878072 19.69118714 415.57624078 C23.96266063 415.57516611 28.23411936 415.58006709 32.50558966 415.5848462 C42.59081464 415.59591683 52.67600237 415.59639269 62.76123047 415.59033203 C73.13245914 415.58429491 83.50355206 415.5966023 93.87475759 415.6179021 C102.80935138 415.63557033 111.74390216 415.64151122 120.67851275 415.63826436 C126.00138368 415.63645955 131.32415776 415.63900699 136.64701271 415.6529789 C141.65648443 415.66563778 146.66574594 415.66353759 151.67521477 415.65056801 C153.50240274 415.64822006 155.32960589 415.65087209 157.15677643 415.65919113 C171.19774607 415.71845621 184.25657755 414.38707735 197.54418945 409.4621582 C198.25462402 409.20354004 198.96505859 408.94492187 199.69702148 408.6784668 C224.74975787 399.29292839 245.55698527 379.49277067 256.79418945 355.2746582 C258.18949527 351.93442217 259.45428915 348.55932043 260.66918945 345.1496582 C260.95552246 344.35108398 261.24185547 343.55250977 261.53686523 342.72973633 C265.82640432 330.04941512 266.08911917 317.57015835 266.06884766 304.34179688 C266.07320252 302.45305684 266.07838823 300.56431857 266.08433533 298.67558289 C266.0976538 293.57625528 266.09831197 288.47700211 266.09577203 283.37766051 C266.09469736 279.10618703 266.09959834 274.8347283 266.10437745 270.56325799 C266.11544808 260.47803302 266.11592394 250.39284529 266.10986328 240.30761719 C266.10382616 229.93638851 266.11613355 219.56529559 266.13743335 209.19409007 C266.15510158 200.25949628 266.16104247 191.3249455 266.15779561 182.3903349 C266.1559908 177.06746398 266.15853824 171.7446899 266.17251015 166.42183495 C266.18516903 161.41236323 266.18306884 156.40310172 266.17009926 151.39363289 C266.16775131 149.56644492 266.17040334 147.73924177 266.17872238 145.91207123 C266.23798746 131.87110159 264.9066086 118.81227011 259.98168945 105.5246582 C259.72307129 104.81422363 259.46445312 104.10378906 259.19799805 103.37182617 C249.81245964 78.31908979 230.01230192 57.51186239 205.79418945 46.2746582 C202.45395342 44.87935239 199.07885168 43.61455851 195.66918945 42.3996582 C194.47132813 41.97015869 194.47132813 41.97015869 193.24926758 41.53198242 C180.56894637 37.24244333 168.0896896 36.97972849 154.86132812 37 C152.97258809 36.99564514 151.08384982 36.99045942 149.19511414 36.98451233 C144.09578653 36.97119385 138.99653336 36.97053569 133.89719176 36.97307563 C129.62571828 36.97415029 125.35425955 36.96924932 121.08278924 36.96447021 C110.99756427 36.95339957 100.91237654 36.95292372 90.82714844 36.95898438 C80.45591976 36.9650215 70.08482684 36.95271411 59.71362132 36.93141431 C50.77902753 36.91374608 41.84447675 36.90780519 32.90986615 36.91105205 C27.58699523 36.91285686 22.26422115 36.91030942 16.9413662 36.89633751 C11.93189448 36.88367863 6.92263297 36.88577882 1.91316414 36.8987484 C0.08597617 36.90109634 -1.74122698 36.89844431 -3.56839752 36.89012527 C-17.60936716 36.83086019 -30.66819864 38.16223906 -43.95581055 43.0871582 Z " fill="#000000" transform="translate(179.205810546875,29.725341796875)"/>
<path d="M0 0 C1.57259331 1.48941482 3.13520214 2.9894446 4.6875 4.5 C5.50605469 5.25667969 6.32460938 6.01335937 7.16796875 6.79296875 C23.55660351 22.36852396 35.30933234 43.60155363 40.6875 65.5 C41.16123047 67.22669922 41.16123047 67.22669922 41.64453125 68.98828125 C46.38498756 89.14063204 45.20619786 111.64373429 39.6875 131.5 C39.51621582 132.15387695 39.34493164 132.80775391 39.16845703 133.48144531 C31.22688286 163.18796771 9.68382292 190.12084877 -16.625 205.75 C-45.89373268 222.51190133 -80.78610102 229.02623748 -113.92578125 220.75 C-146.43093826 211.76541254 -175.21174267 191.90051977 -192.3125 162.5 C-192.901521 161.51676758 -192.901521 161.51676758 -193.50244141 160.51367188 C-201.86179064 146.43120109 -207.29196296 130.79550006 -209.3125 114.5 C-209.42207031 113.62730469 -209.53164062 112.75460937 -209.64453125 111.85546875 C-213.04614548 80.15242412 -205.3718647 45.63242082 -185.4765625 20.1796875 C-162.67708924 -7.16422315 -133.74992906 -25.22873605 -98.16796875 -29.9140625 C-62.40745628 -32.74139438 -27.31619632 -24.12505189 0 0 Z M-152.5625 39.1875 C-167.15758148 57.57967584 -175.10381759 80.08593087 -173.12524414 103.73852539 C-170.31380215 128.07864424 -160.27261216 150.60481378 -140.71606445 166.20288086 C-119.39214727 182.46592854 -95.56375354 189.35227021 -68.75927734 186.19970703 C-49.19203772 182.9529763 -32.36446466 173.3133914 -18.3125 159.5 C-17.62542969 158.82582031 -16.93835938 158.15164063 -16.23046875 157.45703125 C1.25103173 139.07904357 7.40385735 115.24791539 7.00390625 90.5078125 C6.22835472 69.85023487 -3.36853946 52.09039781 -16.3125 36.5 C-16.93125 35.67757812 -17.55 34.85515625 -18.1875 34.0078125 C-32.93002175 16.60946881 -56.27773697 8.3427187 -78.3125 6.5 C-107.00385347 4.31443499 -133.97089403 18.07887661 -152.5625 39.1875 Z " fill="#000000" transform="translate(340.3125,160.5)"/>
<path d="M0 0 C5.88209159 5.59415704 8.52953407 11.92603872 8.8125 20 C8.40814337 28.61279621 6.16510665 33.95614754 -0.125 39.875 C-6.26925447 45.24850877 -12.4914209 45.96239549 -20.42578125 45.80859375 C-27.41214854 45.02868201 -32.74523451 42.1314528 -37.1875 36.6875 C-41.27002939 30.54635805 -43.64407322 23.84553522 -42.75 16.4375 C-40.84791545 8.80651795 -38.06729017 3.24413382 -31.75 -1.5625 C-21.69977347 -7.59263592 -9.37994744 -7.18247603 0 0 Z " fill="#000000" transform="translate(400.75,110.5625)"/>
</svg>
