<?xml version="1.0" encoding="UTF-8"?>
<svg version="1.1" xmlns="http://www.w3.org/2000/svg" width="320" height="320">
<path d="M0 0 C16.17 0 32.34 0 49 0 C49.99 6.27 50.98 12.54 52 19 C54.99633544 28.50266383 59.06121628 36.02801566 65 44 C65.79857422 45.09441406 65.79857422 45.09441406 66.61328125 46.2109375 C77.44369353 59.80942041 94.41632893 66.79633627 111 70 C114.3 70.33 117.6 70.66 121 71 C121 87.17 121 103.34 121 120 C101.1738906 118.83375827 101.1738906 118.83375827 94.9375 117.3125 C94.19910889 117.13879883 93.46071777 116.96509766 92.69995117 116.78613281 C77.54564782 113.05056386 62.15954583 106.93780484 50 97 C49.99641747 97.85419997 49.99641747 97.85419997 49.99276257 98.72565651 C49.93338466 112.64213672 49.85750713 126.55844498 49.76428509 140.47474098 C49.719498 147.20482431 49.68004506 153.93485674 49.65356445 160.66503906 C49.62742183 167.16853353 49.58694233 173.67179958 49.53681374 180.17515182 C49.52021892 182.6476188 49.50865893 185.12012522 49.50238609 187.59263992 C49.42824772 214.14573571 45.19889144 237.44887089 27 258 C26.15953125 258.9590625 25.3190625 259.918125 24.453125 260.90625 C11.08279531 275.52412993 -9.04547381 287.05014825 -29.15942383 288.17700195 C-60.27594228 288.7144905 -84.50866243 283.56641433 -107.75 261.6875 C-116.84459348 252.1764874 -123.17382912 241.14919252 -128 229 C-128.43570313 227.93394531 -128.87140625 226.86789063 -129.3203125 225.76953125 C-135.00889474 208.80323526 -134.53005765 185.60256488 -128 169 C-127.62617187 167.95585937 -127.25234375 166.91171875 -126.8671875 165.8359375 C-118.66149797 144.37072316 -102.150769 127.33037351 -81.58203125 117.33984375 C-68.37491847 111.47801725 -56.22851983 108.81767984 -41.8125 108.875 C-40.82830078 108.87113281 -39.84410156 108.86726563 -38.83007812 108.86328125 C-37.88197266 108.86457031 -36.93386719 108.86585937 -35.95703125 108.8671875 C-35.10085205 108.86831543 -34.24467285 108.86944336 -33.36254883 108.87060547 C-31 109 -31 109 -27 110 C-27 126.17 -27 142.34 -27 159 C-29.97 158.67 -32.94 158.34 -36 158 C-49.32178448 157.14159505 -59.39284667 160.35289149 -69.97265625 168.5234375 C-77.01920599 174.87307573 -81.63451096 184.28998268 -82.23828125 193.72265625 C-82.56454359 206.45570536 -80.50651106 217.00012366 -72 227 C-61.77805622 236.73977662 -51.08260023 239.5199817 -37.3359375 239.2734375 C-27.59476406 238.84734026 -19.2163171 234.41587237 -12 228 C-0.7740153 215.59120082 -0.40890113 201.53709332 -0.45410156 185.72753906 C-0.44535438 183.69623019 -0.43486463 181.6649282 -0.42277527 179.63363647 C-0.39503503 174.15099548 -0.39150794 168.66858066 -0.39249516 163.18587971 C-0.38935574 157.44432383 -0.36371614 151.70286828 -0.34051514 145.96136475 C-0.30003031 135.1032301 -0.27963209 124.2451554 -0.26654124 113.38695693 C-0.25064572 101.01926659 -0.21221933 88.65167789 -0.17194796 76.28404665 C-0.08965182 50.85604511 -0.03846915 25.42810822 0 0 Z " fill="#000000" transform="translate(165,16)"/>
</svg>
